<mxfile host="Electron" modified="2024-02-21T11:30:00.371Z" agent="Mozilla/5.0 (Windows NT 10.0; Win64; x64) AppleWebKit/537.36 (KHTML, like Gecko) draw.io/22.1.21 Chrome/120.0.6099.109 Electron/28.1.0 Safari/537.36" etag="JiEj5a5QUurDkKIvZbFU" version="22.1.21" type="device">
  <diagram name="Page-1" id="EYgRB7Ccgm_2SsvuqZOt">
    <mxGraphModel dx="943" dy="890" grid="1" gridSize="10" guides="1" tooltips="1" connect="1" arrows="1" fold="1" page="1" pageScale="1" pageWidth="827" pageHeight="1169" math="0" shadow="0">
      <root>
        <mxCell id="0" />
        <mxCell id="1" parent="0" />
        <mxCell id="4xrx-LWfa9RXZ2lWpb4c-1" value="" style="rounded=0;whiteSpace=wrap;html=1;fillColor=#647687;fontColor=#ffffff;strokeColor=#314354;movable=0;resizable=0;rotatable=0;deletable=0;editable=0;locked=1;connectable=0;" vertex="1" parent="1">
          <mxGeometry x="20" y="180" width="750" height="510" as="geometry" />
        </mxCell>
        <mxCell id="4xrx-LWfa9RXZ2lWpb4c-2" value="" style="rounded=0;whiteSpace=wrap;html=1;fillColor=#647687;fontColor=#ffffff;strokeColor=#00FF00;strokeWidth=2;" vertex="1" parent="1">
          <mxGeometry x="30" y="220" width="200" height="430" as="geometry" />
        </mxCell>
        <mxCell id="4xrx-LWfa9RXZ2lWpb4c-3" value="" style="rounded=0;whiteSpace=wrap;html=1;fillColor=#647687;fontColor=#ffffff;strokeColor=#FFFF00;strokeWidth=2;" vertex="1" parent="1">
          <mxGeometry x="40" y="230" width="40" height="410" as="geometry" />
        </mxCell>
        <mxCell id="4xrx-LWfa9RXZ2lWpb4c-4" value="" style="rounded=0;whiteSpace=wrap;html=1;fillColor=#647687;fontColor=#ffffff;strokeColor=#FFFF00;strokeWidth=2;" vertex="1" parent="1">
          <mxGeometry x="90" y="230" width="130" height="410" as="geometry" />
        </mxCell>
        <mxCell id="4xrx-LWfa9RXZ2lWpb4c-5" value="" style="rounded=0;whiteSpace=wrap;html=1;fillColor=#647687;fontColor=#ffffff;strokeColor=#00FF00;strokeWidth=2;" vertex="1" parent="1">
          <mxGeometry x="240" y="220" width="520" height="430" as="geometry" />
        </mxCell>
        <mxCell id="4xrx-LWfa9RXZ2lWpb4c-9" value="2024" style="rounded=0;whiteSpace=wrap;html=1;fontSize=12;fillColor=#647687;fontColor=#ffffff;strokeColor=#00FF00;strokeWidth=2;" vertex="1" parent="1">
          <mxGeometry x="30" y="190" width="730" height="20" as="geometry" />
        </mxCell>
        <mxCell id="4xrx-LWfa9RXZ2lWpb4c-11" value="Jan" style="text;html=1;strokeColor=none;fillColor=none;align=center;verticalAlign=middle;whiteSpace=wrap;rounded=0;fontColor=#FFFFFF;" vertex="1" parent="1">
          <mxGeometry x="30" y="230" width="60" height="30" as="geometry" />
        </mxCell>
        <mxCell id="4xrx-LWfa9RXZ2lWpb4c-12" value="Feb" style="text;html=1;strokeColor=none;fillColor=none;align=center;verticalAlign=middle;whiteSpace=wrap;rounded=0;fontColor=#FFFFFF;" vertex="1" parent="1">
          <mxGeometry x="30" y="260" width="60" height="30" as="geometry" />
        </mxCell>
        <mxCell id="4xrx-LWfa9RXZ2lWpb4c-13" value="&lt;font color=&quot;#000000&quot;&gt;Mar&lt;/font&gt;" style="text;html=1;strokeColor=none;fillColor=#FFFFFF;align=center;verticalAlign=middle;whiteSpace=wrap;rounded=0;fontColor=#ffffff;" vertex="1" parent="1">
          <mxGeometry x="40" y="290" width="40" height="30" as="geometry" />
        </mxCell>
        <mxCell id="4xrx-LWfa9RXZ2lWpb4c-14" value="Apr" style="text;html=1;strokeColor=none;fillColor=none;align=center;verticalAlign=middle;whiteSpace=wrap;rounded=0;fontColor=#FFFFFF;" vertex="1" parent="1">
          <mxGeometry x="30" y="320" width="60" height="30" as="geometry" />
        </mxCell>
        <mxCell id="4xrx-LWfa9RXZ2lWpb4c-15" value="May" style="text;html=1;strokeColor=none;fillColor=none;align=center;verticalAlign=middle;whiteSpace=wrap;rounded=0;fontColor=#FFFFFF;" vertex="1" parent="1">
          <mxGeometry x="30" y="350" width="60" height="30" as="geometry" />
        </mxCell>
        <mxCell id="4xrx-LWfa9RXZ2lWpb4c-16" value="Jun" style="text;html=1;strokeColor=none;fillColor=none;align=center;verticalAlign=middle;whiteSpace=wrap;rounded=0;fontColor=#FFFFFF;" vertex="1" parent="1">
          <mxGeometry x="30" y="380" width="60" height="30" as="geometry" />
        </mxCell>
        <mxCell id="4xrx-LWfa9RXZ2lWpb4c-17" value="Jul" style="text;html=1;strokeColor=none;fillColor=none;align=center;verticalAlign=middle;whiteSpace=wrap;rounded=0;fontColor=#FFFFFF;" vertex="1" parent="1">
          <mxGeometry x="30" y="410" width="60" height="30" as="geometry" />
        </mxCell>
        <mxCell id="4xrx-LWfa9RXZ2lWpb4c-18" value="Aug" style="text;html=1;strokeColor=none;fillColor=none;align=center;verticalAlign=middle;whiteSpace=wrap;rounded=0;fontColor=#FFFFFF;" vertex="1" parent="1">
          <mxGeometry x="30" y="440" width="60" height="30" as="geometry" />
        </mxCell>
        <mxCell id="4xrx-LWfa9RXZ2lWpb4c-19" value="Sep" style="text;html=1;strokeColor=none;fillColor=none;align=center;verticalAlign=middle;whiteSpace=wrap;rounded=0;fontColor=#FFFFFF;" vertex="1" parent="1">
          <mxGeometry x="30" y="470" width="60" height="30" as="geometry" />
        </mxCell>
        <mxCell id="4xrx-LWfa9RXZ2lWpb4c-20" value="Oct" style="text;html=1;strokeColor=none;fillColor=none;align=center;verticalAlign=middle;whiteSpace=wrap;rounded=0;fontColor=#FFFFFF;" vertex="1" parent="1">
          <mxGeometry x="30" y="500" width="60" height="30" as="geometry" />
        </mxCell>
        <mxCell id="4xrx-LWfa9RXZ2lWpb4c-21" value="Nov" style="text;html=1;strokeColor=none;fillColor=none;align=center;verticalAlign=middle;whiteSpace=wrap;rounded=0;fontColor=#FFFFFF;" vertex="1" parent="1">
          <mxGeometry x="30" y="530" width="60" height="30" as="geometry" />
        </mxCell>
        <mxCell id="4xrx-LWfa9RXZ2lWpb4c-22" value="Dec" style="text;html=1;strokeColor=none;fillColor=none;align=center;verticalAlign=middle;whiteSpace=wrap;rounded=0;fontColor=#FFFFFF;" vertex="1" parent="1">
          <mxGeometry x="30" y="560" width="60" height="30" as="geometry" />
        </mxCell>
        <mxCell id="4xrx-LWfa9RXZ2lWpb4c-23" value="Week" style="text;html=1;strokeColor=none;fillColor=none;align=center;verticalAlign=middle;whiteSpace=wrap;rounded=0;fontSize=10;fontColor=#FFFFFF;" vertex="1" parent="1">
          <mxGeometry x="90" y="230" width="40" height="20" as="geometry" />
        </mxCell>
        <mxCell id="4xrx-LWfa9RXZ2lWpb4c-24" value="Weekday" style="text;html=1;strokeColor=none;fillColor=none;align=center;verticalAlign=middle;whiteSpace=wrap;rounded=0;fontSize=10;fontColor=#FFFFFF;" vertex="1" parent="1">
          <mxGeometry x="130" y="230" width="90" height="20" as="geometry" />
        </mxCell>
        <mxCell id="4xrx-LWfa9RXZ2lWpb4c-25" value="12" style="text;html=1;strokeColor=none;fillColor=default;align=center;verticalAlign=middle;whiteSpace=wrap;rounded=0;fontSize=10;" vertex="1" parent="1">
          <mxGeometry x="90" y="250" width="40" height="20" as="geometry" />
        </mxCell>
        <mxCell id="4xrx-LWfa9RXZ2lWpb4c-26" value="13.03.2024" style="text;html=1;strokeColor=none;fillColor=default;align=center;verticalAlign=middle;whiteSpace=wrap;rounded=0;fontSize=10;" vertex="1" parent="1">
          <mxGeometry x="160" y="250" width="60" height="20" as="geometry" />
        </mxCell>
        <mxCell id="4xrx-LWfa9RXZ2lWpb4c-29" value="Mon" style="text;html=1;strokeColor=none;fillColor=default;align=center;verticalAlign=middle;whiteSpace=wrap;rounded=0;fontSize=10;" vertex="1" parent="1">
          <mxGeometry x="130" y="250" width="30" height="20" as="geometry" />
        </mxCell>
        <mxCell id="4xrx-LWfa9RXZ2lWpb4c-31" value="Thu" style="text;html=1;strokeColor=none;fillColor=none;align=center;verticalAlign=middle;whiteSpace=wrap;rounded=0;fontSize=10;fontColor=#FFFFFF;" vertex="1" parent="1">
          <mxGeometry x="130" y="270" width="30" height="20" as="geometry" />
        </mxCell>
        <mxCell id="4xrx-LWfa9RXZ2lWpb4c-32" value="14.03.2024" style="text;html=1;strokeColor=none;fillColor=none;align=center;verticalAlign=middle;whiteSpace=wrap;rounded=0;fontSize=10;fontColor=#FFFFFF;" vertex="1" parent="1">
          <mxGeometry x="160" y="270" width="60" height="20" as="geometry" />
        </mxCell>
        <mxCell id="4xrx-LWfa9RXZ2lWpb4c-34" value="Wed" style="text;html=1;strokeColor=none;fillColor=none;align=center;verticalAlign=middle;whiteSpace=wrap;rounded=0;fontSize=10;fontColor=#FFFFFF;" vertex="1" parent="1">
          <mxGeometry x="130" y="290" width="30" height="20" as="geometry" />
        </mxCell>
        <mxCell id="4xrx-LWfa9RXZ2lWpb4c-35" value="15.03.2024" style="text;html=1;strokeColor=none;fillColor=none;align=center;verticalAlign=middle;whiteSpace=wrap;rounded=0;fontSize=10;fontColor=#FFFFFF;" vertex="1" parent="1">
          <mxGeometry x="160" y="290" width="60" height="20" as="geometry" />
        </mxCell>
        <mxCell id="4xrx-LWfa9RXZ2lWpb4c-37" value="Thr" style="text;html=1;strokeColor=none;fillColor=none;align=center;verticalAlign=middle;whiteSpace=wrap;rounded=0;fontSize=10;fontColor=#FFFFFF;" vertex="1" parent="1">
          <mxGeometry x="130" y="310" width="30" height="20" as="geometry" />
        </mxCell>
        <mxCell id="4xrx-LWfa9RXZ2lWpb4c-38" value="16.03.2024" style="text;html=1;strokeColor=none;fillColor=none;align=center;verticalAlign=middle;whiteSpace=wrap;rounded=0;fontSize=10;fontColor=#FFFFFF;" vertex="1" parent="1">
          <mxGeometry x="160" y="310" width="60" height="20" as="geometry" />
        </mxCell>
        <mxCell id="4xrx-LWfa9RXZ2lWpb4c-39" value="month analysis" style="rounded=0;whiteSpace=wrap;html=1;fillColor=#647687;fontColor=#ffffff;strokeColor=#FFFF00;strokeWidth=2;" vertex="1" parent="1">
          <mxGeometry x="250" y="430" width="500" height="210" as="geometry" />
        </mxCell>
        <mxCell id="4xrx-LWfa9RXZ2lWpb4c-40" value="&amp;lt;commands&amp;gt;" style="rounded=0;whiteSpace=wrap;html=1;fillColor=#647687;fontColor=#ffffff;strokeColor=#00FF00;strokeWidth=2;" vertex="1" parent="1">
          <mxGeometry x="30" y="660" width="730" height="20" as="geometry" />
        </mxCell>
        <mxCell id="4xrx-LWfa9RXZ2lWpb4c-41" value="day config" style="rounded=0;whiteSpace=wrap;html=1;fillColor=#647687;fontColor=#ffffff;strokeColor=#FFFF00;strokeWidth=2;" vertex="1" parent="1">
          <mxGeometry x="250" y="230" width="210" height="190" as="geometry" />
        </mxCell>
        <mxCell id="4xrx-LWfa9RXZ2lWpb4c-42" value="week analysis" style="rounded=0;whiteSpace=wrap;html=1;fillColor=#647687;fontColor=#ffffff;strokeColor=#FFFF00;strokeWidth=2;" vertex="1" parent="1">
          <mxGeometry x="470" y="230" width="280" height="190" as="geometry" />
        </mxCell>
        <mxCell id="4xrx-LWfa9RXZ2lWpb4c-43" value="Main view" style="text;html=1;strokeColor=none;fillColor=none;align=center;verticalAlign=middle;whiteSpace=wrap;rounded=0;fontSize=19;fontStyle=1" vertex="1" parent="1">
          <mxGeometry x="335" y="150" width="120" height="30" as="geometry" />
        </mxCell>
        <mxCell id="4xrx-LWfa9RXZ2lWpb4c-44" value="stats" style="rounded=0;whiteSpace=wrap;html=1;fillColor=#647687;fontColor=#ffffff;strokeColor=#CC0066;strokeWidth=2;" vertex="1" parent="1">
          <mxGeometry x="260" y="440" width="140" height="190" as="geometry" />
        </mxCell>
        <mxCell id="4xrx-LWfa9RXZ2lWpb4c-45" value="plot" style="rounded=0;whiteSpace=wrap;html=1;fillColor=#647687;fontColor=#ffffff;strokeColor=#CC0066;strokeWidth=2;" vertex="1" parent="1">
          <mxGeometry x="414" y="440" width="326" height="190" as="geometry" />
        </mxCell>
      </root>
    </mxGraphModel>
  </diagram>
</mxfile>
